<svg id="圖層_1" data-name="圖層 1" xmlns="http://www.w3.org/2000/svg" viewBox="0 0 131 25"><defs><style>.cls-1{fill:#4d4d4d;}.cls-2{fill:#41996d;}</style></defs><polygon class="cls-1" points="110.05 17.13 109 15.09 107.98 15.09 109.03 17.13 107.49 17.14 107.49 18.09 111.89 18.08 111.89 17.13 110.05 17.13"/><path class="cls-1" d="M115,6.36h-1.18V9h-1.7v1.21h1.7v3.47l-.76-1.49H112l.85,1.68h1v2.38c0,.31,0,.73-.83.73v1.18c1.33,0,2-.56,2-1.66V10.19h.88V9H115Z"/><path class="cls-1" d="M106.23,10.16h.64V9h-.64V6.36h-1.1V9H104v1.19h1.11v1a15.23,15.23,0,0,1-1.53,3.73l.84.76c.22-.52.51-1.21.69-1.78v4.2h1.1V13.28h.89l-.89-1.64Z"/><polygon class="cls-1" points="109.96 14.26 111.12 16.54 112.15 16.54 110.97 14.26 109.96 14.26"/><path class="cls-1" d="M89.64,13.8c-.32.85-.7,1.14-1,1.14v1.33c1.27-.13,1.72-.76,2.21-2A29,29,0,0,0,92.07,9H90.8A26.66,26.66,0,0,1,89.64,13.8Z"/><path class="cls-1" d="M97.19,9a21.18,21.18,0,0,0,2.27,7.29l1.16-.63A19.21,19.21,0,0,1,98.44,9Z"/><path class="cls-1" d="M94,15.77a.91.91,0,0,1-1,1v1.33a2.22,2.22,0,0,0,2.36-2.36V6.35H94Z"/><path class="cls-1" d="M129.08,7.39V8.47l-6.39,0v1l7.63,0V6.35l-10,0V11.5c0,3.32-.53,5.32-1.45,5.7l.43,1c2.05-.85,2.12-5,2.12-6.72V7.41h.13Z"/><path class="cls-1" d="M131,17.11h-4.11V15.9h2.88V15h-2.88v-.44A1.78,1.78,0,0,0,125.42,13c.47-.34,1.48-1.3,1.73-1.53h2.62v-1l-7.07,0v1h2.91a3.79,3.79,0,0,1-2.49,1.35v1.1h1.58a.89.89,0,0,1,1,.92V15h-3v.93h3v1.22h-1.52l-2.78,0v1H131Z"/><polygon class="cls-1" points="128.62 14.06 129.77 14.06 128.86 12.38 127.72 12.38 128.62 14.06"/><path class="cls-1" d="M111.41,11.66v-.23A.41.41,0,0,0,111,11h-1.47a1.58,1.58,0,0,0-1.75,1.7v1.13a.41.41,0,0,0,.41.41H111a.41.41,0,0,0,.41-.41V12h0v-.32Zm-1,1.59h-1.5v-.61c0-.67.41-.66.71-.66h.79Z"/><path class="cls-1" d="M109.59,9a.7.7,0,0,1-.71.71,9.08,9.08,0,0,1-1.1.05v1s.87,0,1.23-.06c.77-.1,1.69-.49,1.69-1.65V8.59h1v-1h-1V6.36h-1.18V7.57h-2v1h2.1Z"/><path class="cls-2" d="M7.77,1.79A7.78,7.78,0,0,0,.39,12a0,0,0,0,1,0,0v0a8.44,8.44,0,0,0,3.79,4.4c1.21.78,1.63,1.11,1.63,2.27a1.23,1.23,0,0,0,2.46,0V15.56a2.11,2.11,0,0,1,1.25-1.85l0,0a4.83,4.83,0,0,0,2.28-3.48,1.23,1.23,0,1,0-2.44-.33,2.37,2.37,0,0,1-1.12,1.7V8.42a1.23,1.23,0,1,0-2.46,0v6.15l-.29-.19A5.94,5.94,0,0,1,2.73,11.2a5.07,5.07,0,0,1-.26-1.64,5.31,5.31,0,1,1,10.61,0v5.3H10.91a1.24,1.24,0,0,0,0,2.47h3.4a1.23,1.23,0,0,0,1.23-1.23V9.56A7.77,7.77,0,0,0,7.77,1.79Z"/><path class="cls-1" d="M80.13,15a1.59,1.59,0,1,0,1.59,1.59A1.59,1.59,0,0,0,80.13,15Z"/><polygon class="cls-1" points="34.18 8.66 27.62 8.66 27.62 3.4 24.83 1.95 24.83 18.15 27.62 18.15 27.62 11.45 34.18 11.45 34.18 18.15 36.97 18.15 36.97 3.4 34.18 1.95 34.18 8.66"/><path class="cls-1" d="M70.93,7A5.36,5.36,0,0,0,68,7.83L65.37,6.47V23.21h2.79V17.42a5.48,5.48,0,0,0,2.79.73,5.58,5.58,0,0,0,5.56-5.58A5.57,5.57,0,0,0,70.93,7Zm2,7.58a2.85,2.85,0,0,1-4,0,2.86,2.86,0,0,1,0-4,2.85,2.85,0,0,1,4.87,2A2.72,2.72,0,0,1,73,14.59Z"/><path class="cls-1" d="M57.77,7a5.23,5.23,0,0,0-3.54,1.27,4.57,4.57,0,0,0-.34.31l-.06.06a5.33,5.33,0,0,0-1.52,2.83L50.13,9.84V6.47H47.34V7.74A5.34,5.34,0,0,0,44.56,7,5.58,5.58,0,0,0,39,12.59h0a5.41,5.41,0,0,0,1.64,3.94,5.35,5.35,0,0,0,3.94,1.62,5.25,5.25,0,0,0,3.54-1.27,5.12,5.12,0,0,0,1.94-3.6l2.16,1.63v8.3H55V17.42a5.59,5.59,0,0,0,6.72-.91,5.35,5.35,0,0,0,1.62-3.94A5.55,5.55,0,0,0,57.77,7ZM46.58,14.6a2.86,2.86,0,0,1-4.87-2,2.86,2.86,0,1,1,4.87,2Zm13.21,0a2.72,2.72,0,0,1-1,.68h0l-.23.07-.08,0a2.84,2.84,0,0,1-.66.07,2.87,2.87,0,0,1-2.85-2.85,2.86,2.86,0,1,1,4.87,2Z"/></svg>