<svg width="193" height="32" viewBox="0 0 193 32" fill="none" xmlns="http://www.w3.org/2000/svg">
<g clip-path="url(#clip0)">
<path d="M162.14 22.6039L160.594 19.6H159.092L160.629 22.6088L158.361 22.6138V24.0213L164.846 24.0063V22.5989L162.14 22.6039Z" fill="#4D4D4D"/>
<path d="M169.471 6.73889H167.73V10.5882H165.224V12.3737H167.73V17.4912L166.606 15.298H164.93L166.184 17.7697L167.73 17.7648V21.2809C167.73 21.7285 167.73 22.3551 166.502 22.3551V24.0958C168.471 24.0958 169.471 23.2702 169.471 21.639V12.3786H170.759V10.5932H169.471V6.73889Z" fill="#4D4D4D"/>
<path d="M156.511 12.3389H157.441V10.5783H156.511V6.73889H154.884V10.5783H153.253V12.3389H154.884V13.8358C154.427 15.8053 153.527 17.6752 152.626 19.3264L153.865 20.4454C154.188 19.6795 154.616 18.6649 154.884 17.8294V24.0113H156.511V16.9392L157.824 16.9342L156.511 14.5172V12.3389Z" fill="#4D4D4D"/>
<path d="M161.996 18.3815L163.717 21.7335H165.224L163.493 18.3815H161.996Z" fill="#4D4D4D"/>
<path d="M132.057 17.7C131.594 18.9434 131.022 19.381 130.59 19.381V21.3306C132.46 21.1416 133.121 20.2215 133.837 18.3316C134.519 16.5462 135.225 13.3882 135.648 10.5931H133.778C133.449 13.1594 132.529 16.4318 132.057 17.7Z" fill="#4D4D4D"/>
<path d="M143.182 10.5931C143.774 16.0489 146.067 20.4901 146.529 21.3355L148.24 20.4005C147.812 19.6247 145.614 15.5814 145.027 10.5931H143.182Z" fill="#4D4D4D"/>
<path d="M138.423 20.6044C138.423 21.624 137.92 22.1213 136.891 22.1213V24.0708C139.005 24.0708 140.372 22.7082 140.372 20.6044V6.72388H138.423V20.6044Z" fill="#4D4D4D"/>
<path d="M190.165 8.26073L190.17 9.85219L180.751 9.87706L180.756 11.2945L191.995 11.2646L191.985 6.71899L177.18 6.75381V14.3083C177.18 19.1971 176.394 22.1413 175.046 22.6983L175.668 24.2003C178.697 22.947 178.801 16.8397 178.801 14.2884V8.29057H178.985L190.165 8.26073Z" fill="#4D4D4D"/>
<path d="M192.995 22.569L186.982 22.5839V22.5938H186.947V20.7935H191.18V19.4258H186.947V18.7693C186.947 17.9438 186.182 16.7154 184.784 16.4518C185.465 15.9445 186.962 14.5271 187.33 14.1889L191.185 14.179V12.7367L180.766 12.7616L180.771 14.1889H185.063C184.023 15.1736 182.854 16.1782 181.397 16.1782V17.8045H183.72C185.033 17.8045 185.182 18.7693 185.182 19.1573V19.4258H180.766V20.7935H185.182V22.5938H182.954L178.856 22.564L178.861 24.0361L193 24.0411L192.995 22.569Z" fill="#4D4D4D"/>
<path d="M189.489 18.0779L191.18 18.073L189.847 15.6062H188.166L189.489 18.0779Z" fill="#4D4D4D"/>
<path d="M164.14 14.5419V14.2087C164.14 13.8755 163.871 13.6019 163.538 13.6019C162.697 13.6019 161.28 13.6019 161.369 13.6019C160.405 13.6019 158.788 13.965 158.788 16.1035V17.7746C158.788 18.1127 159.062 18.3813 159.395 18.3813H163.538C163.871 18.3813 164.145 18.1078 164.145 17.7746V15.0243V14.6165L164.14 14.5419ZM162.623 16.8893H160.41V15.9941C160.41 15.0094 161.016 15.0193 161.464 15.0193H162.628V16.8893H162.623Z" fill="#4D4D4D"/>
<path d="M161.449 10.5733C161.449 11.1999 161.026 11.5381 160.41 11.6177C159.793 11.6972 158.783 11.6873 158.783 11.6873V13.2241C158.783 13.2241 160.067 13.2042 160.609 13.1345C161.733 12.9853 163.1 12.4084 163.1 10.7125V10.0262H164.567L164.562 8.51431L163.095 8.51928V6.74878H161.355V8.52426L158.351 8.52923L158.356 10.0312H161.449V10.5733Z" fill="#4D4D4D"/>
<path d="M11.4486 0C5.13745 0 0 5.13745 0 11.4486C0 12.677 0.19396 13.8905 0.576906 15.0493C0.581879 15.0642 0.591826 15.0742 0.5968 15.0891C0.601773 15.099 0.601773 15.109 0.601773 15.1139C2.02414 18.9086 4.43124 20.4652 6.18682 21.5992C7.96727 22.753 8.58397 23.2404 8.58397 24.9363C8.58397 25.9409 9.39462 26.7515 10.3992 26.7515C11.4038 26.7515 12.2145 25.9409 12.2145 24.9363V20.2912C12.2543 18.7942 13.1395 18.1228 14.0497 17.5708L14.0944 17.5459C15.9395 16.4219 17.1679 14.552 17.4564 12.4134C17.5907 11.4188 16.8944 10.5037 15.8997 10.3694C14.9051 10.2351 13.99 10.9314 13.8557 11.926C13.7164 12.9555 13.1346 13.8557 12.2145 14.4326V9.77259C12.2145 8.76798 11.4038 7.95733 10.3992 7.95733C9.39462 7.95733 8.58397 8.76798 8.58397 9.77259V18.834C8.43974 18.7395 8.30049 18.645 8.16123 18.5555C6.5449 17.5111 5.01809 16.5214 4.01348 13.8706C3.75984 13.0948 3.63053 12.2792 3.63053 11.4536C3.63053 7.1417 7.13673 3.6355 11.4486 3.6355C15.7605 3.6355 19.2667 7.1417 19.2667 11.4536V19.2717H16.0788C15.0742 19.2717 14.2635 20.0823 14.2635 21.0869C14.2635 22.0915 15.0742 22.9022 16.0788 22.9022H21.0819C22.0866 22.9022 22.8972 22.0915 22.8972 21.0869V11.4486C22.8972 5.13745 17.7598 0 11.4486 0Z" fill="#41996D"/>
<path d="M118.052 19.4905C116.759 19.4905 115.709 20.5399 115.709 21.8329C115.709 23.126 116.759 24.1754 118.052 24.1754C119.345 24.1754 120.394 23.126 120.394 21.8329C120.394 20.5399 119.345 19.4905 118.052 19.4905Z" fill="#4D4D4D"/>
<path d="M50.3501 10.1208H40.6968V2.3773L36.5889 0.23877V24.1107H40.6968V14.2287H50.3501V24.1107H54.463V2.3773L50.3501 0.23877V10.1208Z" fill="#4D4D4D"/>
<path d="M104.505 7.68871C102.893 7.68871 101.426 8.09652 100.163 8.9022L96.3085 6.89795V14.9199V15.9046V20.1966V26.3636V31.5607H96.3184H99.9141H100.421V23.0314C101.64 23.7476 103.008 24.1007 104.524 24.1007C106.792 24.0957 108.727 23.295 110.323 21.6936C111.925 20.0922 112.72 18.1526 112.715 15.8897C112.711 13.6219 111.91 11.6873 110.308 10.0908C108.707 8.48444 106.772 7.68871 104.505 7.68871ZM107.489 18.8688C106.668 19.6894 105.678 20.1021 104.514 20.1021C103.351 20.1021 102.361 19.6894 101.54 18.8688C100.72 18.0482 100.307 17.0585 100.307 15.8947C100.307 14.7309 100.72 13.7412 101.54 12.9207C102.361 12.1001 103.351 11.6873 104.514 11.6873C105.678 11.6873 106.668 12.1001 107.489 12.9207C108.309 13.7412 108.722 14.7309 108.722 15.8947C108.722 17.0585 108.309 18.0482 107.489 18.8688Z" fill="#4D4D4D"/>
<path d="M85.1086 7.68874C83.1093 7.68874 81.3338 8.31041 79.8916 9.55871C79.7324 9.69299 79.5683 9.84717 79.3992 10.0212C79.3694 10.0511 79.3395 10.0759 79.3147 10.1058C78.1111 11.3093 77.3601 12.7068 77.0617 14.2883L73.8589 11.8663L73.8539 6.90295L69.751 6.91787V8.77293C68.5325 8.05677 67.1648 7.70366 65.648 7.70366C63.3801 7.70863 61.4455 8.50934 59.849 10.1108C58.2476 11.7122 57.4519 13.6518 57.4519 15.9146C57.4569 18.1825 58.2576 20.1171 59.859 21.7135C61.4604 23.3149 63.395 24.1107 65.6629 24.1107C67.6622 24.1107 69.4376 23.489 70.8799 22.2407C72.0884 21.1963 73.3616 19.8535 73.7396 16.9342L76.9076 19.3263V20.1967L76.9175 31.5607H81.0205V23.0315C82.239 23.7476 83.6066 24.1007 85.1235 24.1007C87.3914 24.0958 89.326 23.295 90.9224 21.6936C92.5238 20.0922 93.3196 18.1526 93.3196 15.8898C93.3146 13.6219 92.5139 11.6873 90.9125 10.0909C89.3111 8.48447 87.3764 7.68874 85.1086 7.68874ZM68.627 18.8837C67.8064 19.7043 66.8167 20.1171 65.6529 20.1171C64.4892 20.1171 63.4995 19.7043 62.6789 18.8837C61.8583 18.0631 61.4455 17.0734 61.4455 15.9097C61.4455 14.7459 61.8533 13.7562 62.6789 12.9356C63.4995 12.115 64.4892 11.7022 65.6529 11.7022C66.8117 11.7022 67.8064 12.115 68.627 12.9356C69.4476 13.7562 69.8604 14.7459 69.8604 15.9097C69.8604 17.0684 69.4476 18.0631 68.627 18.8837ZM88.0926 18.8688C87.6301 19.3313 87.1128 19.6645 86.5459 19.8635H86.5409C86.4265 19.9032 86.3121 19.9381 86.1928 19.9679C86.158 19.9778 86.1232 19.9828 86.0834 19.9928C85.775 20.0624 85.4518 20.0972 85.1136 20.0972C83.9548 20.0972 82.9601 19.6844 82.1395 18.8638C81.3189 18.0432 80.9061 17.0535 80.9061 15.8898C80.9061 14.726 81.3189 13.7363 82.1395 12.9157C82.9601 12.0951 83.9498 11.6823 85.1136 11.6823C86.2773 11.6823 87.267 12.0951 88.0876 12.9157C88.9082 13.7363 89.321 14.726 89.321 15.8898C89.321 17.0585 88.9132 18.0482 88.0926 18.8688Z" fill="#4D4D4D"/>
</g>
<defs>
<clipPath id="clip0">
<rect width="193" height="31.5657" fill="white"/>
</clipPath>
</defs>
</svg>
