<svg width="120" height="40" viewBox="0 0 120 40" fill="none" xmlns="http://www.w3.org/2000/svg">
<g clip-path="url(#clip0_285_4267)">
<path fill-rule="evenodd" clip-rule="evenodd" d="M44.2228 27.7737C41.1216 27.7737 38.5986 30.2963 38.5986 33.3975C38.5986 36.4983 41.1216 39.0213 44.2228 39.0213C47.324 39.0213 49.8466 36.4983 49.8466 33.3975C49.8466 30.2963 47.324 27.7737 44.2228 27.7737Z" fill="#FCB716"/>
<path fill-rule="evenodd" clip-rule="evenodd" d="M28.5066 27.7737C25.4054 27.7737 22.8828 30.2963 22.8828 33.3975C22.8828 36.4983 25.4054 39.0213 28.5066 39.0213C31.6075 39.0213 34.1308 36.4983 34.1308 33.3975C34.1308 30.2963 31.6075 27.7737 28.5066 27.7737Z" fill="#EE363F"/>
<path fill-rule="evenodd" clip-rule="evenodd" d="M59.9388 27.7737C56.8373 27.7737 54.3147 30.2963 54.3147 33.3975C54.3147 36.4983 56.8373 39.0213 59.9388 39.0213C63.0397 39.0213 65.5626 36.4983 65.5626 33.3975C65.5626 30.2963 63.0397 27.7737 59.9388 27.7737Z" fill="#07AF56"/>
<path fill-rule="evenodd" clip-rule="evenodd" d="M91.3704 27.7737C88.2692 27.7737 85.7466 30.2963 85.7466 33.3975C85.7466 36.4983 88.2692 39.0213 91.3704 39.0213C94.4716 39.0213 96.9942 36.4983 96.9942 33.3975C96.9942 30.2963 94.4716 27.7737 91.3704 27.7737Z" fill="#04A9DF"/>
<path fill-rule="evenodd" clip-rule="evenodd" d="M75.6548 27.7742C72.5536 27.7742 70.0303 30.2967 70.0303 33.3976C70.0303 36.4988 72.5532 39.021 75.6544 39.021C78.7556 39.021 81.2782 36.4988 81.2782 33.3976C81.2782 30.2967 78.756 27.7742 75.6548 27.7742Z" fill="#A1479A"/>
<path fill-rule="evenodd" clip-rule="evenodd" d="M22.0325 11.8384C22.0325 8.19169 24.9596 5.43874 28.581 5.43874C32.227 5.43874 35.1292 8.16717 35.1292 11.8135V17.4193C35.1292 17.9896 34.7326 18.3866 34.137 18.3866C33.5169 18.3866 33.1449 17.9896 33.1449 17.4193V15.7821H33.0457C32.2767 17.0966 30.7387 18.2377 28.4566 18.2377C24.9347 18.2377 22.0325 15.5092 22.0325 11.8384ZM33.1946 11.8384C33.1946 9.20909 31.2099 7.22477 28.581 7.22477C25.9514 7.22477 23.967 9.20909 23.967 11.8384C23.967 14.4673 25.9514 16.452 28.581 16.452C31.2099 16.452 33.1946 14.4673 33.1946 11.8384ZM40.2399 22.3803C39.719 22.1323 39.4705 21.6856 39.6692 21.165C39.8678 20.6188 40.3639 20.396 40.8845 20.644C41.7779 21.0655 42.8937 21.3633 44.0842 21.3633C47.0365 21.3633 48.8221 19.6021 48.8221 16.6008V15.782H48.7226C47.9536 17.0969 46.4164 18.2375 44.1339 18.2375C40.6116 18.2375 37.7094 15.5091 37.7094 11.8383C37.7094 8.19194 40.6365 5.43863 44.2583 5.43863C47.9046 5.43863 50.8068 8.16743 50.8068 11.8134V16.4768C50.8068 20.4951 48.2266 23.1987 44.0099 23.1987C42.7203 23.1987 41.4304 22.9507 40.2399 22.3803ZM48.8715 11.8383C48.8715 9.20898 46.8872 7.2243 44.2583 7.2243C41.629 7.2243 39.6447 9.20898 39.6447 11.8383C39.6447 14.4676 41.629 16.4519 44.2583 16.4519C46.8872 16.4519 48.8715 14.4676 48.8715 11.8383ZM53.3866 11.8384C53.3866 8.19169 56.2892 5.43874 59.9355 5.43874C63.5815 5.43874 66.4837 8.19169 66.4837 11.8384C66.4837 15.4843 63.5815 18.2377 59.9355 18.2377C56.2892 18.2377 53.3866 15.4843 53.3866 11.8384ZM64.5491 11.8384C64.5491 9.20909 62.5645 7.22477 59.9355 7.22477C57.3059 7.22477 55.3216 9.20909 55.3216 11.8384C55.3216 14.4673 57.3059 16.452 59.9355 16.452C62.5645 16.452 64.5491 14.4673 64.5491 11.8384ZM69.0641 11.8384C69.0641 8.19169 71.9411 5.43874 75.4883 5.43874C77.7704 5.43874 79.3084 6.57979 80.0774 7.89426H80.1765V1.3706C80.1765 0.800256 80.5734 0.40332 81.1687 0.40332C81.7891 0.40332 82.1608 0.800256 82.1608 1.3706V11.8629C82.1608 15.5092 79.2586 18.2377 75.6126 18.2377C71.9912 18.2377 69.0641 15.4843 69.0641 11.8384ZM80.2263 11.8384C80.2263 9.20909 78.2416 7.22477 75.6126 7.22477C72.983 7.22477 70.9987 9.20909 70.9987 11.8384C70.9987 14.4673 72.983 16.452 75.6126 16.452C78.2416 16.452 80.2263 14.4673 80.2263 11.8384ZM84.7412 11.8384C84.7412 8.19169 87.6683 5.43874 91.2897 5.43874C94.936 5.43874 97.8383 8.16717 97.8383 11.8135V17.4193C97.8383 17.9896 97.4413 18.3866 96.8461 18.3866C96.2256 18.3866 95.8536 17.9896 95.8536 17.4193V15.7821H95.7544C94.9854 17.0966 93.4478 18.2377 91.1657 18.2377C87.6434 18.2377 84.7412 15.5092 84.7412 11.8384ZM95.9033 11.8384C95.9033 9.20909 93.919 7.22477 91.2897 7.22477C88.6604 7.22477 86.6761 9.20909 86.6761 11.8384C86.6761 14.4673 88.6604 16.452 91.2897 16.452C93.919 16.452 95.9033 14.4673 95.9033 11.8384Z" fill="#5A5B5B"/>
</g>
<defs>
<clipPath id="clip0_285_4267">
<rect width="76.0703" height="39.1219" fill="white" transform="translate(22.0322 0.40332)"/>
</clipPath>
</defs>
</svg>
